<svg width="40" height="40" viewBox="0 0 40 40" fill="none" xmlns="http://www.w3.org/2000/svg">
<path fill-rule="evenodd" clip-rule="evenodd" d="M36.1798 22L39.5056 24.2727C39.6854 24.3636 39.8202 24.5909 39.8652 24.8636C39.8652 25.0909 39.7304 25.2727 39.5506 25.4091L18.382 39.6818C18.2921 39.7727 18.1573 39.8182 18.0225 39.8182C17.8877 39.8182 17.7978 39.7727 17.6629 39.6818L0.539338 28.1364C0.359563 28.0455 0.224731 27.8182 0.224731 27.5909V15.0909C0.224731 14.9545 0.224731 14.8636 0.314619 14.7273V14.6818C0.359563 14.5909 0.404507 14.5455 0.494394 14.5L21.618 0.227273C21.8427 0.0909091 22.1573 0.0909091 22.382 0.227273L39.5056 11.8636C39.6854 11.9545 39.8202 12.1818 39.8202 12.4091C39.8202 12.6364 39.6854 12.8182 39.5056 12.9545L36.1798 15.1818V22ZM37.9326 12.3636L22.0225 1.63636L2.06743 15.0455L5.12361 17.0909C5.12361 17.119 5.14078 17.1297 5.1645 17.1446C5.17916 17.1537 5.19633 17.1645 5.2135 17.1818L17.9775 25.7727L34.9663 14.3182C35.0562 14.2273 35.191 14.1364 35.3259 14.0909L37.9326 12.3636ZM5.43821 19L17.573 27.1818C17.7978 27.3182 18.1124 27.3182 18.3371 27.1818L34.8315 16.0455V21.6364L18.0674 32.8182L5.43821 24.6364V19ZM1.5281 27.1818L17.9775 38.2727L37.9326 24.8636L35.2809 23.0455L18.4719 34.2273C18.382 34.2727 18.2472 34.3182 18.1124 34.3182C17.9775 34.3182 17.8427 34.3182 17.7528 34.2273L4.44945 25.5909C4.26968 25.4545 4.13484 25.2273 4.13484 25V18.0909L1.5281 16.3636V27.1818Z" fill="#859293"/>
<path d="M19.1011 7.86364L27.1011 13.4091C27.2359 13.5 27.3708 13.5455 27.4607 13.5455C27.6854 13.5455 27.8652 13.4545 28 13.2273C28.2247 12.9091 28.1348 12.5 27.8202 12.2727L19.8652 6.72728C19.5506 6.5 19.1461 6.59091 18.9213 6.90909C18.6966 7.22728 18.7865 7.63637 19.1011 7.86364Z" fill="#859293"/>
</svg>
