<?xml version="1.0" encoding="UTF-8" standalone="no"?> <svg width="48" height="48" viewBox="0 0 48 48" fill="none" xmlns="http://www.w3.org/2000/svg">
<path d="M36 30C38.2091 30 40 28.2091 40 26C40 23.7909 38.2091 22 36 22C33.7909 22 32 23.7909 32 26C32 28.2091 33.7909 30 36 30Z" fill="#8FA5A5"/>
<path d="M37 28C36.2555 27.9892 35.5416 27.7018 34.9971 27.1938C34.4527 26.6858 34.1166 25.9935 34.0543 25.2515C33.9919 24.5095 34.2077 23.7708 34.6598 23.1791C35.1118 22.5874 35.7677 22.185 36.5 22.05C36.3345 22.0232 36.1675 22.0065 36 22C35.2089 22 34.4355 22.2346 33.7777 22.6741C33.1199 23.1136 32.6072 23.7384 32.3045 24.4693C32.0017 25.2002 31.9225 26.0044 32.0769 26.7804C32.2312 27.5563 32.6122 28.269 33.1716 28.8284C33.731 29.3878 34.4437 29.7688 35.2196 29.9231C35.9956 30.0775 36.7998 29.9983 37.5307 29.6955C38.2616 29.3928 38.8864 28.8801 39.3259 28.2223C39.7654 27.5645 40 26.7911 40 26C39.9935 25.8325 39.9769 25.6655 39.95 25.5C39.8321 26.1977 39.4713 26.8312 38.9315 27.2887C38.3917 27.7462 37.7076 27.9981 37 28V28Z" fill="#7B8C8C"/>
<path d="M36 31C37.5913 31 39.1174 31.6321 40.2426 32.7574C41.3679 33.8826 42 35.4087 42 37V41C42 41.2652 41.8946 41.5196 41.7071 41.7071C41.5196 41.8946 41.2652 42 41 42H31C30.7348 42 30.4804 41.8946 30.2929 41.7071C30.1054 41.5196 30 41.2652 30 41V37C30 35.4087 30.6321 33.8826 31.7574 32.7574C32.8826 31.6321 34.4087 31 36 31Z" fill="#8FA5A5"/>
<path d="M33 40.9999V36.9999C33.0021 35.6714 33.4451 34.3811 34.2595 33.3314C35.0739 32.2818 36.2137 31.5321 37.5 31.1999C36.6139 30.9666 35.6859 30.9402 34.7879 31.1226C33.8899 31.305 33.0459 31.6914 32.321 32.252C31.5961 32.8126 31.0098 33.5323 30.6073 34.3556C30.2049 35.1788 29.9971 36.0836 30 36.9999V40.9999C30 41.2652 30.1054 41.5195 30.2929 41.707C30.4805 41.8946 30.7348 41.9999 31 41.9999H34C33.7348 41.9999 33.4805 41.8946 33.2929 41.707C33.1054 41.5195 33 41.2652 33 40.9999Z" fill="#7B8C8C"/>
<path d="M12 30C14.2091 30 16 28.2091 16 26C16 23.7909 14.2091 22 12 22C9.79086 22 8 23.7909 8 26C8 28.2091 9.79086 30 12 30Z" fill="#8FA5A5"/>
<path d="M13 28C12.2555 27.9892 11.5416 27.7018 10.9971 27.1938C10.4527 26.6858 10.1166 25.9935 10.0542 25.2515C9.9919 24.5095 10.2077 23.7708 10.6597 23.1791C11.1118 22.5874 11.7677 22.185 12.5 22.05C12.3345 22.0232 12.1675 22.0065 12 22C11.2089 22 10.4355 22.2346 9.77772 22.6741C9.11993 23.1136 8.60723 23.7384 8.30448 24.4693C8.00173 25.2002 7.92252 26.0044 8.07686 26.7804C8.2312 27.5563 8.61216 28.269 9.17157 28.8284C9.73098 29.3878 10.4437 29.7688 11.2196 29.9231C11.9956 30.0775 12.7998 29.9983 13.5307 29.6955C14.2616 29.3928 14.8864 28.8801 15.3259 28.2223C15.7654 27.5645 16 26.7911 16 26C15.9935 25.8325 15.9769 25.6655 15.95 25.5C15.8321 26.1977 15.4713 26.8312 14.9315 27.2887C14.3917 27.7462 13.7076 27.9981 13 28V28Z" fill="#7B8C8C"/>
<path d="M12 31C13.5913 31 15.1174 31.6321 16.2426 32.7574C17.3679 33.8826 18 35.4087 18 37V41C18 41.2652 17.8946 41.5196 17.7071 41.7071C17.5196 41.8946 17.2652 42 17 42H7C6.73478 42 6.48043 41.8946 6.29289 41.7071C6.10536 41.5196 6 41.2652 6 41V37C6 35.4087 6.63214 33.8826 7.75736 32.7574C8.88258 31.6321 10.4087 31 12 31V31Z" fill="#8FA5A5"/>
<path d="M9.00003 40.9999V36.9999C9.00213 35.6714 9.44511 34.3811 10.2595 33.3314C11.0739 32.2818 12.2137 31.5321 13.5 31.1999C12.6139 30.9666 11.6859 30.9402 10.7879 31.1226C9.88991 31.305 9.04586 31.6914 8.32097 32.252C7.59609 32.8126 7.00978 33.5323 6.60734 34.3556C6.20491 35.1788 5.99712 36.0836 6.00003 36.9999V40.9999C6.00003 41.2652 6.10539 41.5195 6.29292 41.707C6.48046 41.8946 6.73481 41.9999 7.00003 41.9999H10C9.73481 41.9999 9.48046 41.8946 9.29292 41.707C9.10539 41.5195 9.00003 41.2652 9.00003 40.9999Z" fill="#7B8C8C"/>
<path d="M24 30C26.7614 30 29 27.7614 29 25C29 22.2386 26.7614 20 24 20C21.2386 20 19 22.2386 19 25C19 27.7614 21.2386 30 24 30Z" fill="#2D4A60"/>
<path d="M25.9998 26.9998C25.1952 27.002 24.4087 26.7609 23.7437 26.308C23.0786 25.8552 22.566 25.2118 22.2732 24.4624C21.9805 23.713 21.9211 22.8925 22.1031 22.1088C22.285 21.325 22.6998 20.6146 23.2928 20.0708C22.3745 20.2001 21.5104 20.5828 20.7975 21.176C20.0847 21.7691 19.5512 22.5492 19.2571 23.4287C18.963 24.3082 18.9198 25.2522 19.1324 26.1549C19.345 27.0575 19.805 27.8831 20.4608 28.5388C21.1165 29.1945 21.942 29.6545 22.8447 29.8672C23.7473 30.0798 24.6914 30.0366 25.5709 29.7425C26.4503 29.4483 27.2304 28.9149 27.8236 28.202C28.4167 27.4892 28.7994 26.6251 28.9288 25.7068C28.5567 26.1134 28.1043 26.4383 27.6 26.6609C27.0958 26.8835 26.5509 26.9989 25.9998 26.9998V26.9998Z" fill="#263F52"/>
<path d="M29 43H19C18.4696 43 17.9609 42.7893 17.5858 42.4142C17.2107 42.0391 17 41.5304 17 41V38C17 36.1435 17.7375 34.363 19.0503 33.0503C20.363 31.7375 22.1435 31 24 31V31C25.8565 31 27.637 31.7375 28.9497 33.0503C30.2625 34.363 31 36.1435 31 38V41C31 41.5304 30.7893 42.0391 30.4142 42.4142C30.0391 42.7893 29.5304 43 29 43Z" fill="#2D4A60"/>
<path d="M20 41V38C20.0006 36.4045 20.5461 34.8571 21.5464 33.614C22.5467 32.371 23.9416 31.5069 25.5 31.165C24.4777 30.9389 23.4176 30.9452 22.3981 31.1837C21.3786 31.4221 20.4257 31.8866 19.6097 32.5427C18.7938 33.1988 18.1356 34.0299 17.6839 34.9744C17.2322 35.919 16.9985 36.953 17 38V41C17 41.5305 17.2107 42.0392 17.5858 42.4143C17.9609 42.7893 18.4696 43 19 43H22C21.4696 43 20.9609 42.7893 20.5858 42.4143C20.2107 42.0392 20 41.5305 20 41Z" fill="#263F52"/>
<path d="M30 15H26L24.707 16.293C24.5195 16.4805 24.2652 16.5858 24 16.5858C23.7348 16.5858 23.4805 16.4805 23.293 16.293L22 15H18C17.4696 15 16.9609 14.7893 16.5858 14.4142C16.2107 14.0391 16 13.5304 16 13V7C16 6.46957 16.2107 5.96086 16.5858 5.58579C16.9609 5.21071 17.4696 5 18 5H30C30.5304 5 31.0391 5.21071 31.4142 5.58579C31.7893 5.96086 32 6.46957 32 7V13C32 13.5304 31.7893 14.0391 31.4142 14.4142C31.0391 14.7893 30.5304 15 30 15Z" fill="#EAEFF0"/>
<path d="M41 17H38L36.707 18.293C36.5195 18.4805 36.2652 18.5858 36 18.5858C35.7348 18.5858 35.4805 18.4805 35.293 18.293L34 17H31C30.4696 17 29.9609 16.7893 29.5858 16.4142C29.2107 16.0391 29 15.5304 29 15V9C29 8.46957 29.2107 7.96086 29.5858 7.58579C29.9609 7.21071 30.4696 7 31 7H41C41.5304 7 42.0391 7.21071 42.4142 7.58579C42.7893 7.96086 43 8.46957 43 9V15C43 15.5304 42.7893 16.0391 42.4142 16.4142C42.0391 16.7893 41.5304 17 41 17Z" fill="#D9E1E2"/>
<path d="M29.7 7.5C29.4823 7.68493 29.307 7.91468 29.1862 8.17355C29.0654 8.43243 29.0019 8.71433 29 9V15C29 15.5304 29.2107 16.0391 29.5858 16.4142C29.9609 16.7893 30.4696 17 31 17H34L35.293 18.293C35.4805 18.4805 35.7348 18.5858 36 18.5858C36.2652 18.5858 36.5195 18.4805 36.707 18.293L38 17H41C41.4796 16.9962 41.9415 16.8185 42.3 16.5L29.7 7.5Z" fill="#C6CDCE"/>
<path d="M17 17H14L12.707 18.293C12.5195 18.4805 12.2652 18.5858 12 18.5858C11.7348 18.5858 11.4805 18.4805 11.293 18.293L10 17H7C6.46957 17 5.96086 16.7893 5.58579 16.4142C5.21071 16.0391 5 15.5304 5 15V9C5 8.46957 5.21071 7.96086 5.58579 7.58579C5.96086 7.21071 6.46957 7 7 7H17C17.5304 7 18.0391 7.21071 18.4142 7.58579C18.7893 7.96086 19 8.46957 19 9V15C19 15.5304 18.7893 16.0391 18.4142 16.4142C18.0391 16.7893 17.5304 17 17 17Z" fill="#D9E1E2"/>
<path d="M5.7 7.5C5.48226 7.68493 5.30699 7.91468 5.18618 8.17355C5.06538 8.43243 5.00187 8.71433 5 9V15C5 15.5304 5.21071 16.0391 5.58579 16.4142C5.96086 16.7893 6.46957 17 7 17H10L11.293 18.293C11.4805 18.4805 11.7348 18.5858 12 18.5858C12.2652 18.5858 12.5195 18.4805 12.707 18.293L14 17H17C17.4796 16.9962 17.9415 16.8185 18.3 16.5L5.7 7.5Z" fill="#C6CDCE"/>
<path d="M30 15H26L24.707 16.293C24.5195 16.4805 24.2652 16.5858 24 16.5858C23.7348 16.5858 23.4805 16.4805 23.293 16.293L22 15H18C17.4696 15 16.9609 14.7893 16.5858 14.4142C16.2107 14.0391 16 13.5304 16 13V7C16 6.46957 16.2107 5.96086 16.5858 5.58579C16.9609 5.21071 17.4696 5 18 5H30C30.5304 5 31.0391 5.21071 31.4142 5.58579C31.7893 5.96086 32 6.46957 32 7V13C32 13.5304 31.7893 14.0391 31.4142 14.4142C31.0391 14.7893 30.5304 15 30 15Z" fill="#EAEFF0"/>
<path d="M16.737 5.46094C16.5076 5.64667 16.3225 5.88114 16.195 6.14734C16.0675 6.41354 16.0009 6.70479 16 6.99994V12.9999C16 13.5304 16.2107 14.0391 16.5858 14.4142C16.9609 14.7892 17.4696 14.9999 18 14.9999H22L23.293 16.2929C23.4805 16.4804 23.7348 16.5857 24 16.5857C24.2652 16.5857 24.5195 16.4804 24.707 16.2929L26 14.9999H30C30.4619 14.9982 30.9086 14.8351 31.263 14.5389L16.737 5.46094Z" fill="#D9E1E2"/>
<path d="M38.323 30.4C39.314 29.8815 40.1025 29.0456 40.5625 28.0262C41.0225 27.0067 41.1274 25.8624 40.8605 24.7763C40.5935 23.6901 39.9701 22.7249 39.0898 22.0348C38.2096 21.3448 37.1235 20.9698 36.005 20.9698C34.8865 20.9698 33.8004 21.3448 32.9202 22.0348C32.0399 22.7249 31.4165 23.6901 31.1495 24.7763C30.8826 25.8624 30.9875 27.0067 31.4475 28.0262C31.9075 29.0456 32.696 29.8815 33.687 30.4C32.2956 30.8911 31.0955 31.8104 30.259 33.026C29.2988 31.818 28.0107 30.9125 26.549 30.418C27.784 29.8381 28.7845 28.8547 29.3855 27.6299C29.9865 26.4051 30.1521 25.0121 29.8551 23.6805C29.558 22.3489 28.816 21.1583 27.7515 20.305C26.6869 19.4518 25.3633 18.9868 23.999 18.9868C22.6347 18.9868 21.3111 19.4518 20.2465 20.305C19.182 21.1583 18.44 22.3489 18.1429 23.6805C17.8459 25.0121 18.0115 26.4051 18.6125 27.6299C19.2135 28.8547 20.214 29.8381 21.449 30.418C19.9918 30.9118 18.7074 31.8144 17.749 33.018C17.513 32.6717 17.2452 32.3483 16.949 32.052C16.2107 31.3088 15.3126 30.7438 14.323 30.4C15.3134 29.8809 16.1012 29.0449 16.5606 28.0254C17.02 27.006 17.1243 25.8619 16.8571 24.7762C16.5898 23.6904 15.9663 22.7256 15.0862 22.0359C14.2061 21.3461 13.1202 20.9713 12.002 20.9713C10.8838 20.9713 9.79793 21.3461 8.91782 22.0359C8.03772 22.7256 7.41421 23.6904 7.14694 24.7762C6.87966 25.8619 6.98405 27.006 7.44341 28.0254C7.90277 29.0449 8.6906 29.8809 9.681 30.4C8.31398 30.8809 7.12972 31.7739 6.29138 32.9559C5.45303 34.1379 5.00185 35.5508 5 37V41C5 41.5304 5.21071 42.0391 5.58579 42.4142C5.96086 42.7893 6.46957 43 7 43H16.78C17.059 43.3133 17.4009 43.5643 17.7834 43.7366C18.1659 43.9089 18.5805 43.9987 19 44H29C29.4195 43.9987 29.8341 43.9089 30.2166 43.7366C30.5991 43.5643 30.941 43.3133 31.22 43H41C41.5304 43 42.0391 42.7893 42.4142 42.4142C42.7893 42.0391 43 41.5304 43 41V37C42.9993 35.5511 42.5491 34.1382 41.7114 32.956C40.8736 31.7739 39.6898 30.8808 38.323 30.4V30.4ZM36 23C36.5933 23 37.1734 23.1759 37.6667 23.5056C38.1601 23.8352 38.5446 24.3037 38.7716 24.8519C38.9987 25.4001 39.0581 26.0033 38.9424 26.5852C38.8266 27.1672 38.5409 27.7017 38.1213 28.1213C37.7018 28.5409 37.1672 28.8266 36.5853 28.9423C36.0033 29.0581 35.4001 28.9987 34.852 28.7716C34.3038 28.5446 33.8352 28.16 33.5056 27.6667C33.1759 27.1733 33 26.5933 33 26C33 25.2043 33.3161 24.4413 33.8787 23.8787C34.4413 23.316 35.2044 23 36 23ZM20 25C20 24.2089 20.2346 23.4355 20.6741 22.7777C21.1136 22.1199 21.7384 21.6072 22.4693 21.3045C23.2002 21.0017 24.0044 20.9225 24.7804 21.0768C25.5563 21.2312 26.269 21.6121 26.8284 22.1716C27.3878 22.731 27.7688 23.4437 27.9231 24.2196C28.0775 24.9955 27.9983 25.7998 27.6955 26.5307C27.3928 27.2616 26.8801 27.8863 26.2223 28.3259C25.5645 28.7654 24.7911 29 24 29C22.9391 29 21.9217 28.5785 21.1716 27.8284C20.4214 27.0783 20 26.0608 20 25ZM12 23C12.5933 23 13.1734 23.1759 13.6667 23.5056C14.1601 23.8352 14.5446 24.3037 14.7716 24.8519C14.9987 25.4001 15.0581 26.0033 14.9424 26.5852C14.8266 27.1672 14.5409 27.7017 14.1213 28.1213C13.7018 28.5409 13.1672 28.8266 12.5853 28.9423C12.0033 29.0581 11.4001 28.9987 10.8519 28.7716C10.3038 28.5446 9.83524 28.16 9.50559 27.6667C9.17595 27.1733 9 26.5933 9 26C9 25.2043 9.31607 24.4413 9.87868 23.8787C10.4413 23.316 11.2044 23 12 23V23ZM7 41V37C7.00159 35.6744 7.52888 34.4035 8.46622 33.4662C9.40356 32.5289 10.6744 32.0016 12 32C12.6583 31.9972 13.3105 32.1261 13.9183 32.3791C14.526 32.632 15.0771 33.0039 15.539 33.473C15.9865 33.914 16.3408 34.4404 16.581 35.021C16.1981 35.9675 16.0008 36.9789 16 38V41H7ZM30 41C30 41.2652 29.8946 41.5195 29.7071 41.7071C29.5196 41.8946 29.2652 42 29 42H19C18.7348 42 18.4804 41.8946 18.2929 41.7071C18.1054 41.5195 18 41.2652 18 41V38C18 36.4087 18.6321 34.8826 19.7574 33.7573C20.8826 32.6321 22.4087 32 24 32C25.5913 32 27.1174 32.6321 28.2426 33.7573C29.3679 34.8826 30 36.4087 30 38V41ZM41 41H32V38C31.999 36.9847 31.8039 35.9789 31.425 35.037C31.7428 34.2849 32.2409 33.6226 32.8753 33.1086C33.5097 32.5947 34.2609 32.2448 35.0625 32.0899C35.8642 31.935 36.6916 31.9799 37.4718 32.2206C38.252 32.4613 38.9609 32.8904 39.536 33.47C40.0027 33.9313 40.3726 34.4812 40.624 35.0874C40.8753 35.6935 41.0032 36.3438 41 37V41Z" fill="black"/>
<path d="M41 6H32.816C32.6099 5.41709 32.2288 4.91209 31.7247 4.55409C31.2206 4.19608 30.6183 4.00256 30 4H18C17.3817 4.00256 16.7794 4.19608 16.2753 4.55409C15.7712 4.91209 15.3901 5.41709 15.184 6H7C6.20435 6 5.44129 6.31607 4.87868 6.87868C4.31607 7.44129 4 8.20435 4 9V15C4 15.7956 4.31607 16.5587 4.87868 17.1213C5.44129 17.6839 6.20435 18 7 18H9.586L10.586 19C10.9621 19.3753 11.4717 19.5861 12.003 19.5861C12.5343 19.5861 13.0439 19.3753 13.42 19L14.42 18H17C17.6183 17.9974 18.2206 17.8039 18.7247 17.4459C19.2288 17.0879 19.6099 16.5829 19.816 16H21.586L22.586 17C22.9611 17.3749 23.4697 17.5856 24 17.5856C24.5303 17.5856 25.0389 17.3749 25.414 17L26.414 16H28.184C28.3901 16.5829 28.7712 17.0879 29.2753 17.4459C29.7794 17.8039 30.3817 17.9974 31 18H33.586L34.586 19C34.9621 19.3753 35.4717 19.5861 36.003 19.5861C36.5343 19.5861 37.0439 19.3753 37.42 19L38.42 18H41C41.7956 18 42.5587 17.6839 43.1213 17.1213C43.6839 16.5587 44 15.7956 44 15V9C44 8.20435 43.6839 7.44129 43.1213 6.87868C42.5587 6.31607 41.7956 6 41 6ZM14 16C13.7348 16.0001 13.4805 16.1054 13.293 16.293L12 17.583L10.71 16.293C10.6168 16.1998 10.5061 16.1259 10.3843 16.0756C10.2624 16.0253 10.1318 15.9996 10 16H7C6.73478 16 6.48043 15.8946 6.29289 15.7071C6.10536 15.5196 6 15.2652 6 15V9C6 8.73478 6.10536 8.48043 6.29289 8.29289C6.48043 8.10536 6.73478 8 7 8H15V13C15.0008 13.6837 15.2352 14.3465 15.6642 14.8788C16.0932 15.4111 16.6911 15.7809 17.359 15.927C17.245 15.9737 17.1232 15.9985 17 16H14ZM26 14C25.7348 14.0001 25.4805 14.1055 25.293 14.293L24 15.586L22.707 14.293C22.5195 14.1055 22.2652 14.0001 22 14H18C17.7348 14 17.4804 13.8946 17.2929 13.7071C17.1054 13.5196 17 13.2652 17 13V7C17 6.73478 17.1054 6.48043 17.2929 6.29289C17.4804 6.10536 17.7348 6 18 6H30C30.2652 6 30.5196 6.10536 30.7071 6.29289C30.8946 6.48043 31 6.73478 31 7V13C31 13.2652 30.8946 13.5196 30.7071 13.7071C30.5196 13.8946 30.2652 14 30 14H26ZM42 15C42 15.2652 41.8946 15.5196 41.7071 15.7071C41.5196 15.8946 41.2652 16 41 16H38C37.7348 16.0001 37.4805 16.1054 37.293 16.293L36 17.583L34.71 16.293C34.6168 16.1998 34.5061 16.1259 34.3843 16.0756C34.2624 16.0253 34.1318 15.9996 34 16H31C30.8768 15.9985 30.755 15.9737 30.641 15.927C31.3089 15.7809 31.9068 15.4111 32.3358 14.8788C32.7648 14.3465 32.9992 13.6837 33 13V8H41C41.2652 8 41.5196 8.10536 41.7071 8.29289C41.8946 8.48043 42 8.73478 42 9V15Z" fill="black"/>
</svg>
