<?xml version="1.0" encoding="UTF-8" standalone="no"?> <svg xmlns="http://www.w3.org/2000/svg" viewBox="0 0 64 64"><g id="Layer_44" data-name="Layer 44"><path d="M56.154,25.526c-.616-2.307,2.132-6.01.964-8.03-1.185-2.048-5.778-1.511-7.44-3.173S48.553,8.068,46.5,6.882c-2.02-1.168-5.723,1.58-8.03.964C36.244,7.25,34.417,3,32,3s-4.244,4.25-6.474,4.846c-2.307.616-6.01-2.132-8.03-.964-2.048,1.185-1.511,5.777-3.173,7.44S8.068,15.447,6.882,17.5c-1.168,2.02,1.58,5.723.964,8.03C7.25,27.756,3,29.583,3,32s4.25,4.244,4.846,6.474c.616,2.307-2.132,6.01-.964,8.029,1.185,2.049,5.778,1.512,7.44,3.174s1.125,6.255,3.174,7.441c2.02,1.168,5.723-1.58,8.03-.964C27.756,56.75,29.583,61,32,61s4.244-4.25,6.474-4.846c2.307-.616,6.01,2.132,8.03.964,2.048-1.185,1.511-5.778,3.173-7.44s6.255-1.125,7.441-3.174c1.168-2.02-1.58-5.723-.964-8.03C56.75,36.244,61,34.417,61,32S56.75,27.756,56.154,25.526Z" style="fill:#ed1c24"/><circle cx="32" cy="32" r="20" style="fill:#ffda44"/><path d="M36.686,12.575a19.928,19.928,0,0,1-24.372,22.85,19.99,19.99,0,1,0,24.372-22.85Z" style="fill:#ffcd00"/><path d="M25,25a1,1,0,0,0-1,1v8.7s-6.2-9.283-6.222-9.3A.981.981,0,0,0,17,25a1,1,0,0,0-1,1V38a1,1,0,0,0,2,0V29.3s6.2,9.276,6.213,9.286A.983.983,0,0,0,25,39a1,1,0,0,0,1-1V26A1,1,0,0,0,25,25Z" style="fill:#d80027"/><path d="M35,33a1,1,0,0,0,0-2H30V27h5a1,1,0,0,0,0-2H29a1,1,0,0,0-1,1V38a1,1,0,0,0,1,1h6a1,1,0,0,0,0-2H30V33Z" style="fill:#d80027"/><path d="M46,39a1,1,0,0,1-.958-.713L43,31.48l-2.042,6.807A.976.976,0,0,1,39.937,39a1,1,0,0,1-.923-.833l-2-12a1,1,0,0,1,1.972-.33l1.293,7.755,1.763-5.877a1,1,0,0,1,1.916,0l1.763,5.877,1.293-7.755a1,1,0,0,1,1.972.33l-2,12a1,1,0,0,1-.923.833C46.042,39,46.021,39,46,39Z" style="fill:#d80027"/></g></svg>