<?xml version="1.0" encoding="iso-8859-1"?>
<!-- Generator: Adobe Illustrator 21.0.0, SVG Export Plug-In . SVG Version: 6.00 Build 0)  -->
<svg version="1.1" id="Capa_1" xmlns="http://www.w3.org/2000/svg" xmlns:xlink="http://www.w3.org/1999/xlink" x="0px" y="0px"
	 viewBox="0 0 512 512" style="enable-background:new 0 0 512 512;" xml:space="preserve">
<g id="XMLID_446_">
	<g id="XMLID_447_">
		<g id="XMLID_448_">
			<g id="XMLID_449_">
				<g id="XMLID_450_">
					<g id="XMLID_451_">
						<g id="XMLID_452_">
							<path style="fill:#93A3AF;" d="M158.133,145.061v13.392H76.748v-13.392c0-5.69,4.612-10.302,10.302-10.302h60.781
								C153.521,134.759,158.133,139.372,158.133,145.061z"/>
							<path style="fill:#93A3AF;" d="M251.879,458.236v-13.392h-40.177v13.392c0,5.69,4.612,10.302,10.302,10.302h19.573
								C247.267,468.538,251.879,463.926,251.879,458.236z"/>
							<path style="fill:#93A3AF;" d="M178.736,458.236v-13.392H76.748v13.392c0,5.69,4.612,10.302,10.302,10.302h81.384
								C174.124,468.538,178.736,463.926,178.736,458.236z"/>
							<path style="fill:#93A3AF;" d="M315.75,458.236v-13.392h-40.177v13.392c0,5.69,4.612,10.302,10.302,10.302h19.573
								C311.138,468.538,315.75,463.926,315.75,458.236z"/>
							<path id="XMLID_453_" style="fill:#D3D8DF;" d="M512,176.398v250.499c0,11.383-9.22,20.604-20.604,20.604H20.604
								C9.22,447.501,0,438.281,0,426.897V176.398c0-11.384,9.22-20.604,20.604-20.604h470.793
								C502.78,155.795,512,165.015,512,176.398z"/>
							<path id="XMLID_454_" style="fill:#C2C6CC;" d="M512,176.398v250.499c0,11.383-9.22,20.604-20.604,20.604h-18.028
								c11.384,0,20.604-9.22,20.604-20.604V176.398c0-11.384-9.22-20.604-20.604-20.604h18.028
								C502.78,155.795,512,165.015,512,176.398z"/>
							<rect id="XMLID_455_" x="52.024" y="155.795" style="fill:#5F9EEB;" width="407.952" height="291.706"/>
							
								<rect x="305.365" y="292.892" transform="matrix(6.123234e-17 -1 1 6.123234e-17 149.5705 752.8681)" style="fill:#3A82D0;" width="291.709" height="17.513"/>
							<path id="XMLID_456_" style="fill:#C2C6CC;" d="M27.643,329.548c-4.267,0-7.726-3.459-7.726-7.726v-40.345
								c0-4.268,3.459-7.726,7.726-7.726s7.726,3.459,7.726,7.726v40.345C35.37,326.089,31.91,329.548,27.643,329.548z"/>
						</g>
					</g>
				</g>
			</g>
		</g>
	</g>
	<g id="XMLID_457_">
		<path id="XMLID_458_" style="fill:#F1DD47;" d="M368.599,134.666l-40.187,52.23l1.813,65.87
			c0.175,6.387-6.119,10.951-12.136,8.818L256,239.498l-62.089,22.087c-6.016,2.132-12.311-2.431-12.135-8.818l0.361-12.96
			l1.453-52.91l-40.187-52.23c-3.894-5.058-1.483-12.455,4.636-14.268l63.212-18.626L248.5,47.41c3.616-5.264,11.384-5.264,15,0
			l37.251,54.363l14.999,4.419l48.213,14.206C370.082,122.211,372.493,129.608,368.599,134.666z"/>
		<path id="XMLID_459_" style="fill:#EFC40F;" d="M329.627,230.875l0.598,21.891c0.175,6.387-6.119,10.951-12.136,8.818
			l-14.144-5.027L329.627,230.875z"/>
		<path id="XMLID_460_" style="fill:#EFC40F;" d="M368.599,134.666l-40.187,52.23l0.371,13.403l-48.006,48.006L256,239.498
			l-62.089,22.087c-6.016,2.132-12.311-2.431-12.135-8.818l0.361-12.96L315.75,106.192l48.213,14.206
			C370.082,122.211,372.493,129.608,368.599,134.666z"/>
	</g>
	<g id="XMLID_461_">
		<g id="XMLID_462_">
			<path style="fill:#F1DD47;" d="M141.514,339.943l-20.186,7.178c-1.957,0.696-4.003-0.79-3.946-2.867l0.589-21.416l-13.065-16.98
				c-1.267-1.646-0.485-4.051,1.507-4.638l20.55-6.058l12.112-17.672c1.174-1.713,3.703-1.713,4.877,0l12.112,17.672l20.55,6.058
				c1.992,0.587,2.774,2.992,1.507,4.638l-13.065,16.98l0.589,21.416c0.057,2.076-1.989,3.563-3.946,2.867L141.514,339.943z"/>
		</g>
		<g id="XMLID_463_">
			<path style="fill:#F1DD47;" d="M255.999,380.639l-20.186,7.178c-1.957,0.696-4.003-0.79-3.946-2.867l0.589-21.416l-13.065-16.98
				c-1.267-1.646-0.485-4.051,1.507-4.638l20.55-6.058l12.112-17.672c1.174-1.713,3.703-1.713,4.877,0l12.112,17.672l20.55,6.058
				c1.992,0.587,2.774,2.992,1.507,4.638l-13.065,16.98l0.589,21.416c0.057,2.076-1.988,3.563-3.946,2.867L255.999,380.639z"/>
		</g>
		<g id="XMLID_464_">
			<path style="fill:#F1DD47;" d="M370.486,339.943l-20.186,7.178c-1.957,0.696-4.003-0.79-3.946-2.867l0.589-21.416l-13.065-16.98
				c-1.267-1.646-0.485-4.051,1.507-4.638l20.55-6.058l12.112-17.672c1.174-1.713,3.703-1.713,4.877,0l12.112,17.672l20.55,6.058
				c1.992,0.587,2.774,2.992,1.507,4.638l-13.065,16.98l0.589,21.416c0.057,2.076-1.989,3.563-3.946,2.867L370.486,339.943z"/>
		</g>
	</g>
</g>
<g>
</g>
<g>
</g>
<g>
</g>
<g>
</g>
<g>
</g>
<g>
</g>
<g>
</g>
<g>
</g>
<g>
</g>
<g>
</g>
<g>
</g>
<g>
</g>
<g>
</g>
<g>
</g>
<g>
</g>
</svg>
