<?xml version="1.0" encoding="UTF-8" standalone="no"?> <svg xmlns="http://www.w3.org/2000/svg" viewBox="0 0 64 64"><g id="Lineal_Color" data-name="Lineal Color"><path d="M53,27V19H48.507A16.853,16.853,0,0,0,46.5,14.158l3.179-3.179L44.021,5.322,40.842,8.5A16.853,16.853,0,0,0,36,6.493V2H28V6.493A16.853,16.853,0,0,0,23.158,8.5L19.979,5.322l-5.657,5.657L17.5,14.158A16.853,16.853,0,0,0,15.493,19H11v8h4.493A16.853,16.853,0,0,0,17.5,31.842l-3.179,3.179,5.657,5.657L23.158,37.5A16.853,16.853,0,0,0,28,39.507V44h8V39.507A16.853,16.853,0,0,0,40.842,37.5l3.179,3.179,5.657-5.657L46.5,31.842A16.853,16.853,0,0,0,48.507,27ZM32,34A11,11,0,1,1,43,23,11,11,0,0,1,32,34Z" style="fill:#fcc96d"/><path d="M27,25H37a0,0,0,0,1,0,0V57a5,5,0,0,1-5,5h0a5,5,0,0,1-5-5V25A0,0,0,0,1,27,25Z" style="fill:#d1d3d4"/><path d="M32,25V62a5,5,0,0,0,5-5V25Z" style="fill:#b6b6b7"/><path d="M37,13.21V23H27V13.21a11,11,0,1,0,10,0Z" style="fill:#ddd"/><path d="M32,63a6.006,6.006,0,0,1-6-6V32.8a1,1,0,0,1,2,0V57a4,4,0,0,0,8,0V32.8a1,1,0,0,1,2,0V57A6.006,6.006,0,0,1,32,63Z" style="fill:#231f20"/><path d="M32,63a1,1,0,0,1-1-1V34a1,1,0,0,1,2,0V62A1,1,0,0,1,32,63Z" style="fill:#231f20"/><path d="M37,24H27a1,1,0,0,1-1-1V13.21a1,1,0,0,1,2,0V22h8V13.21a1,1,0,0,1,2,0V23A1,1,0,0,1,37,24Z" style="fill:#231f20"/><path d="M44.02,41.68h0a1,1,0,0,1-.708-.293L40.675,38.75a18.194,18.194,0,0,1-3.38,1.436,1,1,0,0,1-.59-1.912,16.273,16.273,0,0,0,3.617-1.629,1,1,0,0,1,1.225.148l2.473,2.473,4.246-4.246-2.473-2.473a1,1,0,0,1-.147-1.227,16.061,16.061,0,0,0,1.892-4.556A1,1,0,0,1,48.51,26H52V20H48.51a1,1,0,0,1-.972-.764,16.061,16.061,0,0,0-1.892-4.556,1,1,0,0,1,.147-1.227l2.473-2.473L44.02,6.734,41.547,9.207a1,1,0,0,1-1.227.147,16.05,16.05,0,0,0-4.555-1.892A1,1,0,0,1,35,6.49V3H29V6.49a1,1,0,0,1-.765.972A16.05,16.05,0,0,0,23.68,9.354a1,1,0,0,1-1.227-.147L19.98,6.734,15.734,10.98l2.473,2.473a1,1,0,0,1,.147,1.227,16.061,16.061,0,0,0-1.892,4.556A1,1,0,0,1,15.49,20H12v6h3.49a1,1,0,0,1,.972.764,16.061,16.061,0,0,0,1.892,4.556,1,1,0,0,1-.147,1.227L15.734,35.02l4.246,4.246,2.473-2.473a1,1,0,0,1,1.225-.148A16.273,16.273,0,0,0,27.3,38.274a1,1,0,0,1-.59,1.912,18.194,18.194,0,0,1-3.38-1.436l-2.638,2.637a1.029,1.029,0,0,1-1.414,0l-5.66-5.66a1,1,0,0,1,0-1.414l2.637-2.637A18.093,18.093,0,0,1,14.722,28H11a1,1,0,0,1-1-1V19a1,1,0,0,1,1-1h3.722a18.093,18.093,0,0,1,1.528-3.676l-2.637-2.637a1,1,0,0,1,0-1.414l5.66-5.66a1,1,0,0,1,.707-.293h0a1,1,0,0,1,.707.293L23.324,7.25A18,18,0,0,1,27,5.722V2a1,1,0,0,1,1-1h8a1,1,0,0,1,1,1V5.722A18,18,0,0,1,40.676,7.25l2.636-2.637a1.031,1.031,0,0,1,1.415,0l5.66,5.66a1,1,0,0,1,0,1.414L47.75,14.324A18.093,18.093,0,0,1,49.278,18H53a1,1,0,0,1,1,1v8a1,1,0,0,1-1,1H49.278a18.093,18.093,0,0,1-1.528,3.676l2.637,2.637a1,1,0,0,1,0,1.414l-5.66,5.66A1,1,0,0,1,44.02,41.68Z" style="fill:#231f20"/><path d="M32,35A12,12,0,1,1,44,23,12.013,12.013,0,0,1,32,35Zm0-22A10,10,0,1,0,42,23,10.011,10.011,0,0,0,32,13Z" style="fill:#231f20"/></g></svg>